<svg width="151" height="37" viewBox="0 0 151 37" fill="none" xmlns="http://www.w3.org/2000/svg">
<path d="M40.9922 18.7989H53.5193V14.719H45.7617V0.496624H40.9922V18.7989ZM74.2926 18.7989L66.6211 0.496624H61.708L53.8498 18.7989H58.7629L60.0415 15.5666H67.9428L69.1927 18.7989H74.2926ZM64.0353 5.38107L66.5349 11.9032H61.4637L64.0353 5.38107ZM79.881 11.2568V0.496624H75.1115V11.2568C75.1115 12.837 75.4562 14.2305 76.1458 15.4229C76.821 16.6009 77.841 17.5634 79.0621 18.1668C80.3263 18.8133 81.7916 19.1293 83.4581 19.1293C85.1246 19.1293 86.5899 18.8133 87.8254 18.1668C89.0321 17.5491 90.0377 16.6009 90.6986 15.4085C91.3738 14.2162 91.7042 12.8227 91.7042 11.2424V0.496624H86.9203V11.2568C86.9203 12.4204 86.6043 13.3542 85.9722 14.0294C85.3401 14.719 84.5068 15.0638 83.4868 15.0638C82.4381 15.0638 81.5762 14.719 80.901 14.015C80.2258 13.3255 79.881 12.406 79.881 11.2568ZM107.507 11.5154L99.1745 0.496624H94.9653V18.7989H99.4331V7.85202L107.737 18.7846H111.917V0.496624H107.478L107.507 11.5154ZM128.725 6.70274L131.498 3.36983C130.55 2.37857 129.401 1.58844 128.122 1.0569C125.22 -0.192944 121.902 -0.0636502 119.1 1.43041C116.098 3.03941 114.259 6.19993 114.316 9.60468C114.288 11.2999 114.719 12.9807 115.566 14.4604C116.385 15.8826 117.577 17.075 119.014 17.8795C121.772 19.431 125.105 19.546 127.978 18.2099C129.314 17.6209 130.507 16.7733 131.512 15.7246L128.725 12.7077C128.093 13.3542 127.346 13.8857 126.527 14.2736C125.795 14.6328 124.99 14.8339 124.186 14.8483C123.295 14.8626 122.419 14.6184 121.657 14.1587C120.896 13.699 120.293 13.0382 119.876 12.248C119.431 11.4148 119.215 10.481 119.229 9.54721C119.215 8.59905 119.445 7.67963 119.876 6.8464C120.293 6.05627 120.896 5.4098 121.657 4.95009C122.419 4.49038 123.295 4.24615 124.171 4.26052C125.019 4.27488 125.852 4.50474 126.599 4.92136C127.418 5.3667 128.151 5.97007 128.725 6.70274ZM133.552 18.7989H138.336V11.7739H145.72V18.7989H150.504V0.496624H145.72V7.96695H138.336V0.496624H133.552V18.7989ZM41.222 24.5884H49.5543L40.9922 35.09V36.0669H51.2351V34.9463H42.6155L51.1633 24.416V23.4822H41.2364V24.5884H41.222ZM59.3807 23.3673C58.217 23.3529 57.0821 23.6546 56.0765 24.2293C55.0852 24.7752 54.2664 25.5797 53.6917 26.5422C53.1027 27.5047 52.801 28.6253 52.8154 29.7458C52.801 30.8807 53.1171 32.0013 53.6917 32.9782C55.5737 36.1243 59.6536 37.1443 62.7998 35.2624C63.7336 34.7021 64.5237 33.912 65.084 32.9782C65.673 32.0013 65.9747 30.8807 65.9603 29.7458C65.9747 28.6109 65.6586 27.5047 65.084 26.5422C64.5093 25.5797 63.6761 24.7752 62.6992 24.2293C61.6792 23.6546 60.53 23.3529 59.3807 23.3673ZM59.395 24.4879C60.3288 24.4879 61.2339 24.7177 62.0384 25.1918C62.8429 25.6515 63.5037 26.3123 63.9778 27.1025C64.4519 27.907 64.7105 28.8264 64.6961 29.7458C64.6961 30.6796 64.4519 31.599 63.9778 32.4179C63.5037 33.2224 62.8429 33.8832 62.0384 34.3573C61.2339 34.8314 60.3288 35.0756 59.395 35.0612C58.4613 35.0756 57.5275 34.817 56.723 34.3573C55.9185 33.8976 55.2433 33.2224 54.7692 32.4179C54.2951 31.6134 54.0509 30.694 54.0509 29.7458C54.0365 28.812 54.2951 27.8926 54.7692 27.1025C55.7461 25.4791 57.4987 24.4879 59.395 24.4879ZM77.8266 34.1418L70.0115 23.4822H68.6898V36.0812H69.9397V25.4073L77.7404 36.0812H79.0621V23.4822H77.841L77.8266 34.1418ZM83.0415 36.0812H91.7042V34.9607H84.277V30.2199H90.7129V29.0993H84.277V24.5884H91.4743V23.4822H83.0415V36.0812Z" fill="url(#paint0_linear)"/>
<path d="M17.9788 34.73C27.0792 34.73 34.4566 27.3527 34.4566 18.2522C34.4566 9.15178 27.0792 1.77441 17.9788 1.77441C8.87834 1.77441 1.50098 9.15178 1.50098 18.2522C1.50098 27.3527 8.87834 34.73 17.9788 34.73Z" fill="white"/>
<path d="M34.4991 11.2272C30.649 2.09046 20.1187 -2.20498 10.9819 1.65948C1.84515 5.52394 -2.43592 16.0255 1.41417 25.1623C5.26426 34.2991 15.7945 38.5801 24.9313 34.73C34.0681 30.8943 38.3492 20.364 34.4991 11.2272ZM17.9207 33.1498C9.67462 33.1498 2.98006 26.4552 2.98006 18.2091C2.98006 9.96303 9.67462 3.26847 17.9207 3.26847C26.1668 3.26847 32.8614 9.96303 32.8614 18.2091C32.8614 26.4552 26.1668 33.1498 17.9207 33.1498Z" fill="url(#paint1_linear)"/>
<path d="M21.2243 30.3192L30.0306 21.4985L21.2243 12.6777L17.9775 15.9101L23.5372 21.4985L17.9775 27.0725L21.2243 30.3192Z" fill="url(#paint2_linear)"/>
<path d="M14.6596 6.11328L5.83887 14.934L14.6596 23.7547L17.8919 20.5224L12.3323 14.934L17.9063 9.36L14.6596 6.11328Z" fill="url(#paint3_linear)"/>
<defs>
<linearGradient id="paint0_linear" x1="54.854" y1="-16.0235" x2="128.123" y2="45.4557" gradientUnits="userSpaceOnUse">
<stop stop-color="#328B31"/>
<stop offset="1" stop-color="#96CF24"/>
</linearGradient>
<linearGradient id="paint1_linear" x1="5.88504" y1="31.9298" x2="29.7818" y2="4.74675" gradientUnits="userSpaceOnUse">
<stop stop-color="#328B31"/>
<stop offset="1" stop-color="#96CF24"/>
</linearGradient>
<linearGradient id="paint2_linear" x1="9.55262" y1="35.1495" x2="33.4449" y2="7.96639" gradientUnits="userSpaceOnUse">
<stop stop-color="#328B31"/>
<stop offset="1" stop-color="#96CF24"/>
</linearGradient>
<linearGradient id="paint3_linear" x1="2.22126" y1="28.7057" x2="26.118" y2="1.52264" gradientUnits="userSpaceOnUse">
<stop stop-color="#328B31"/>
<stop offset="1" stop-color="#96CF24"/>
</linearGradient>
</defs>
</svg>
