<svg width="136" height="32" xmlns="http://www.w3.org/2000/svg" xmlns:xlink="http://www.w3.org/1999/xlink"><defs><linearGradient x1="50%" y1="0%" x2="50%" y2="100%" id="b"><stop stop-color="#70F5FF" offset="0%"/><stop stop-color="#1FC7D4" offset="100%"/></linearGradient><path id="a" d="M0 0h22.957v27H0z"/></defs><g stroke="none" stroke-width="1" fill="none" fill-rule="evenodd"><g transform="translate(6 3)"><g><g><mask id="c" fill="#fff"><use xlink:href="#a"/></mask><path d="M13.837 18.18l-2.54 6.386c-.113.28-.526.175-.5-.127l.355-4.223-1.34.378c-.509.145-.968-.367-.782-.87l2.616-6.25c.1-.273.5-.198.502.095l-.26 4.046 1.178-.322c.515-.141.972.384.771.887m9.089-.012c-.135-1.676-.649-3.145-1.528-4.366-.634-.88-1.46-1.634-2.46-2.248 1.283-3.613 2.318-7.494.995-9.75C19.407.907 18.565.352 17.43.156a4.366 4.366 0 00-.74-.066c-.988 0-1.85.364-2.56 1.083C12.22 3.1 11.867 6.995 11.86 9.69c-.102-.003-.754-.001-.905.003.06-2.695-.143-6.668-2.01-8.604C8.234.355 6.983-.125 5.66.029c-1.148.134-2.003.75-2.555 1.638-1.403 2.26-.442 6.253.776 9.95a8.38 8.38 0 00-2.383 2.258C.656 15.08.163 16.525.031 18.162c-.18 2.25.418 4.133 1.78 5.592 1.228 1.316 3.043 2.255 5.393 2.788a19.173 19.173 0 004.275.455c.037.001.114.003.227.003.612 0 2.23-.044 4.046-.456 2.351-.533 4.166-1.47 5.395-2.787 1.36-1.459 1.96-3.339 1.779-5.589" fill="url(#b)" mask="url(#c)"/></g><path d="M37.077 19.268a6.64 6.64 0 001.648-.193 3.374 3.374 0 001.306-.64c.368-.298.657-.684.867-1.157.21-.473.316-1.055.316-1.744 0-.69-.152-1.269-.456-1.736a3.239 3.239 0 00-1.21-1.105 3.08 3.08 0 00.974-1.008c.24-.403.359-.943.359-1.621 0-.503-.085-.967-.254-1.394a3.022 3.022 0 00-.737-1.096 3.342 3.342 0 00-1.2-.71c-.48-.17-1.035-.254-1.666-.254h-4.47c-.468 0-.827.14-1.078.42-.252.281-.377.609-.377.983v9.852c0 .175.029.345.087.509.059.163.15.312.272.447.123.134.275.242.456.324.18.082.394.123.64.123h4.523zm-.386-7.697h-2.63V9.345h2.63c.41 0 .719.082.93.245.21.164.315.445.315.842 0 .362-.103.643-.307.841-.205.2-.517.298-.938.298zm.193 4.997H34.06V14.13h2.858c.432 0 .765.096 1 .29.233.192.35.493.35.902 0 .83-.462 1.245-1.385 1.245zm9.45 3.138c.735 0 1.463-.059 2.182-.175a10.078 10.078 0 002.13-.596c.701-.293 1.052-.766 1.052-1.42v-6.066a1.44 1.44 0 00-.43-1.043 1.487 1.487 0 00-.464-.316 1.396 1.396 0 00-.561-.114 1.396 1.396 0 00-1.017.43c-.129.134-.231.289-.307.464a1.44 1.44 0 00-.114.579v5.382c-.42.128-.792.21-1.113.245a8.212 8.212 0 01-.886.053 1.2 1.2 0 01-.78-.263c-.216-.175-.324-.48-.324-.912V11.45a1.44 1.44 0 00-.43-1.043 1.487 1.487 0 00-.464-.316 1.396 1.396 0 00-.561-.114c-.41 0-.751.143-1.026.43a1.451 1.451 0 00-.412 1.043v4.558c0 .666.097 1.233.29 1.7.192.468.45.85.771 1.149.321.298.695.514 1.122.648.427.135.874.202 1.341.202zm14.778-.263c.409 0 .754-.143 1.034-.43.28-.286.42-.628.42-1.025v-4.435c0-.667-.096-1.234-.288-1.701a3.147 3.147 0 00-.78-1.148 3.006 3.006 0 00-1.123-.649 4.352 4.352 0 00-1.332-.202c-.736 0-1.46.056-2.174.167-.713.111-1.42.295-2.121.552-.713.269-1.07.742-1.07 1.42v5.996c0 .397.138.74.413 1.025.274.287.616.43 1.025.43a1.4 1.4 0 001.026-.43 1.4 1.4 0 00.43-1.025v-5.19a6.158 6.158 0 011.998-.367 1.2 1.2 0 01.78.262c.216.176.324.48.324.912v4.383c0 .397.14.74.421 1.025.28.287.62.43 1.017.43zm10.87 0c.408 0 .753-.143 1.033-.43.28-.286.421-.628.421-1.025v-4.435c0-.667-.096-1.234-.29-1.701a3.147 3.147 0 00-.78-1.148 3.006 3.006 0 00-1.121-.649 4.352 4.352 0 00-1.333-.202c-.736 0-1.46.056-2.173.167-.713.111-1.42.295-2.122.552-.713.269-1.07.742-1.07 1.42v5.996c0 .397.138.74.413 1.025.275.287.616.43 1.025.43a1.4 1.4 0 001.026-.43 1.4 1.4 0 00.43-1.025v-5.19a6.158 6.158 0 011.998-.367 1.2 1.2 0 01.78.262c.216.176.325.48.325.912v4.383c0 .397.14.74.42 1.025.28.287.62.43 1.017.43zm6.468 3.401c.257 0 .508-.073.754-.22a1.33 1.33 0 00.543-.604l4.54-10.133c.094-.187.141-.391.141-.614a1.44 1.44 0 00-.43-1.043 1.487 1.487 0 00-.464-.315 1.396 1.396 0 00-.561-.114c-.339 0-.622.093-.85.28a1.986 1.986 0 00-.552.772l-1.736 4.12-1.999-4.225c-.303-.632-.77-.947-1.402-.947-.41 0-.757.146-1.043.438-.286.292-.43.655-.43 1.087 0 .152.024.295.07.43.047.134.106.265.176.394l2.857 5.557c.07.14.12.278.15.412.029.135.002.284-.08.447l-1.016 2.21a1.282 1.282 0 00-.088.332 2.57 2.57 0 00-.018.28c0 .398.138.74.412 1.026.275.287.617.43 1.026.43zm9.151-3.401c.21 0 .406-.041.588-.123a1.585 1.585 0 00.797-.789 1.31 1.31 0 00.123-.56v-2.35h1.543c1.741 0 3.047-.38 3.918-1.14.87-.759 1.306-1.887 1.306-3.383 0-1.472-.447-2.589-1.341-3.348-.894-.76-2.136-1.14-3.726-1.14h-3.208c-.467 0-.827.14-1.078.42-.251.281-.377.609-.377.983v9.957c0 .398.143.742.43 1.035.286.292.628.438 1.025.438zm2.98-6.592H89.11V9.415h1.525c.83 0 1.411.135 1.744.403.334.27.5.702.5 1.298 0 .584-.166 1.02-.5 1.306-.333.286-.932.43-1.796.43zm10.414 6.592c.69 0 1.37-.064 2.042-.193a8.83 8.83 0 001.92-.596c.327-.152.584-.353.771-.605.187-.251.28-.529.28-.832v-3.735c0-1.285-.382-2.22-1.147-2.805-.766-.584-1.85-.876-3.252-.876-.596 0-1.155.047-1.675.14-.52.094-.914.193-1.183.298a1.57 1.57 0 00-.684.482 1.2 1.2 0 00-.263.78c0 .34.12.62.36.842a1.3 1.3 0 00.868.35c.163 0 .318-.014.464-.043a3.18 3.18 0 00.377-.097c.234-.07.5-.131.798-.184a4.99 4.99 0 01.867-.079c.561 0 .956.094 1.184.28.228.188.342.48.342.877a13.265 13.265 0 00-1.07-.105 18.286 18.286 0 00-1.104-.035c-.748 0-1.365.085-1.85.254-.485.17-.87.395-1.157.675-.286.28-.485.602-.596.964a3.808 3.808 0 00-.166 1.122c0 .433.064.839.192 1.219.129.38.345.71.65.99.303.28.7.503 1.191.667.491.163 1.105.245 1.841.245zm.105-2.332c-.362 0-.62-.064-.771-.193-.152-.128-.228-.338-.228-.63 0-.234.073-.421.22-.562.145-.14.388-.21.727-.21.292 0 .625.009.999.026.374.018.713.05 1.017.097v1.157c-.304.093-.637.17-1 .228a6.134 6.134 0 01-.964.087zm8.45 2.332c.41 0 .757-.146 1.043-.438a1.45 1.45 0 00.43-1.052V13.29c0-.316.085-.532.254-.65.17-.116.371-.174.605-.174.234 0 .459.017.675.052.216.035.435.082.657.14.433.106.783.065 1.052-.122s.45-.415.543-.684c.106-.327.091-.634-.043-.92-.135-.287-.371-.512-.71-.675a4.635 4.635 0 00-1.017-.325 6.18 6.18 0 00-1.297-.131c-.597 0-1.122.061-1.578.184a2.795 2.795 0 00-1.149.596c-.31.275-.543.634-.7 1.078-.159.444-.237.988-.237 1.63v4.664c0 .409.143.76.43 1.052.285.292.633.438 1.042.438zm14.113 0c.362 0 .672-.129.929-.386s.386-.56.386-.911c0-.199-.044-.386-.132-.561a1.556 1.556 0 00-.342-.456l-3.226-2.7 3.033-2.384c.164-.129.295-.284.395-.465.1-.18.149-.377.149-.587 0-.374-.129-.687-.386-.938a1.281 1.281 0 00-.929-.377c-.222 0-.412.047-.57.14a3.423 3.423 0 00-.447.316l-3.05 2.542V7.908a1.44 1.44 0 00-.43-1.044 1.487 1.487 0 00-.464-.315 1.459 1.459 0 00-1.13 0 1.364 1.364 0 00-.466.315c-.128.135-.23.29-.306.465a1.44 1.44 0 00-.114.579v10.08c0 .397.14.74.42 1.025.28.287.626.43 1.035.43a1.4 1.4 0 001.025-.43 1.4 1.4 0 00.43-1.025v-1.683l3.225 2.77c.129.105.275.193.439.263.163.07.339.105.526.105z" fill="#3CD7E4" fill-rule="nonzero"/></g></g></g></svg>